<svg xmlns="http://www.w3.org/2000/svg" viewBox="0 0 31.998 31.999"><defs><style>.a{fill:#1f4974;}</style></defs><g transform="translate(-14183.566 -14453.763)"><path class="a" d="M12672.426,13486.961a12.666,12.666,0,1,1,12.666-12.668A12.683,12.683,0,0,1,12672.426,13486.961Zm0-24a11.333,11.333,0,1,0,11.332,11.331A11.345,11.345,0,0,0,12672.426,13462.962Z" transform="translate(1523.809 992.134)"/><path class="a" d="M13147.715,13950.288a.664.664,0,0,1-.473-.2l-10-10a.665.665,0,0,1,.941-.94l10,10a.667.667,0,0,1,0,.942A.658.658,0,0,1,13147.715,13950.288Z" transform="translate(1067.185 535.474)"/></g></svg>