<svg xmlns="http://www.w3.org/2000/svg" xmlns:xlink="http://www.w3.org/1999/xlink" viewBox="0 0 46.442 31.764"><defs><style>.a{fill:url(#a);}</style><linearGradient id="a" x1="0.5" x2="0.5" y2="1" gradientUnits="objectBoundingBox"><stop offset="0" stop-color="#3d7aaa"/><stop offset="1" stop-color="#1f3d55"/></linearGradient></defs><path class="a" d="M56.328,182.332a13.575,13.575,0,0,0-6.161-3.5.375.375,0,0,0-.19-.047h-.209a.466.466,0,0,0-.19.047,5.65,5.65,0,0,1-2.6.588,5.71,5.71,0,0,1-2.6-.588.375.375,0,0,0-.19-.047h-.152a.526.526,0,0,0-.09.009A13.436,13.436,0,0,0,41,179.9a10.578,10.578,0,0,1-2.664,4.564H56.043a.4.4,0,0,0,.4-.4v-1.436A.386.386,0,0,0,56.328,182.332Zm-13.82-9.915a.758.758,0,0,0,.73.782h.014c.152,2.066,1.763,4.133,3.73,4.133s3.578-2.066,3.73-4.133h.009a.762.762,0,0,0,.735-.782.792.792,0,0,0-.436-.716,4.9,4.9,0,0,0,.227-1.479,4.28,4.28,0,1,0-8.54,0,4.854,4.854,0,0,0,.227,1.479A.787.787,0,0,0,42.508,172.417Zm-17.323,7.346a12.987,12.987,0,0,0-2.531-.929.375.375,0,0,0-.19-.047h-.209a.448.448,0,0,0-.19.047,5.65,5.65,0,0,1-2.6.588,5.71,5.71,0,0,1-2.6-.588.375.375,0,0,0-.19-.047h-.152a.526.526,0,0,0-.09.009,13.6,13.6,0,0,0-6.313,3.536.409.409,0,0,0-.118.289v1.436a.4.4,0,0,0,.4.4H27.882A10.616,10.616,0,0,1,25.185,179.763ZM15,172.417a.758.758,0,0,0,.73.782h.014c.152,2.066,1.758,4.133,3.73,4.133s3.578-2.066,3.73-4.133h.009a.762.762,0,0,0,.735-.782.8.8,0,0,0-.431-.716,4.9,4.9,0,0,0,.227-1.479,4.428,4.428,0,0,0-4.27-4.574,4.428,4.428,0,0,0-4.27,4.574,4.854,4.854,0,0,0,.227,1.479A.782.782,0,0,0,15,172.417Zm10.479,4.047a1.3,1.3,0,0,0,1.251,1.341h.024A8.456,8.456,0,0,0,28,181.592a8.2,8.2,0,0,0,.943,1.246,5.733,5.733,0,0,0,4.18,2.028,5.85,5.85,0,0,0,4.4-2.28c.137-.166.275-.336.4-.517a8.573,8.573,0,0,0,1.564-4.265h.024a1.3,1.3,0,0,0,1.246-1.341,1.345,1.345,0,0,0-.739-1.223,8.338,8.338,0,0,0,.393-2.526,7.566,7.566,0,0,0-7.289-7.815,7.563,7.563,0,0,0-7.289,7.815,8.338,8.338,0,0,0,.393,2.526A1.333,1.333,0,0,0,25.474,176.464Zm13.081,10.6a.627.627,0,0,0-.322-.081h-.355a.672.672,0,0,0-.318.081,10.316,10.316,0,0,1-8.882,0,.706.706,0,0,0-.322-.081H28.1a.589.589,0,0,0-.156.019,23.127,23.127,0,0,0-10.787,6.033.686.686,0,0,0-.209.488v2.455a.684.684,0,0,0,.682.687H48.6a.683.683,0,0,0,.678-.687v-2.455a.673.673,0,0,0-.2-.488A23.128,23.128,0,0,0,38.555,187.062Z" transform="translate(-10 -164.9)"/></svg>